<?xml version="1.0" encoding="UTF-8" standalone="no"?>
<svg
   xmlns:dc="http://purl.org/dc/elements/1.1/"
   xmlns:cc="http://creativecommons.org/ns#"
   xmlns:rdf="http://www.w3.org/1999/02/22-rdf-syntax-ns#"
   xmlns:svg="http://www.w3.org/2000/svg"
   xmlns="http://www.w3.org/2000/svg"
   viewBox="0 0 498 237.71359"
   height="237.71359"
   width="498"
   xml:space="preserve"
   version="1.1"
   id="svg2"><metadata
     id="metadata8"><rdf:RDF><cc:Work
         rdf:about=""><dc:format>image/svg+xml</dc:format><dc:type
           rdf:resource="http://purl.org/dc/dcmitype/StillImage" /><dc:title></dc:title></cc:Work></rdf:RDF></metadata><defs
     id="defs6"><clipPath
       id="clipPath830"
       clipPathUnits="userSpaceOnUse"><path
         id="path832"
         d="M 6.827,6.827 H 1704.78 V 630.449 H 6.827 Z" /></clipPath><clipPath
       id="clipPath842"
       clipPathUnits="userSpaceOnUse"><path
         id="path844"
         d="M 0,0 H 1711.61 V 637.276 H 0 Z" /></clipPath><clipPath
       id="clipPath856"
       clipPathUnits="userSpaceOnUse"><path
         id="path858"
         d="M 6.827,6.827 H 1704.78 V 630.449 H 6.827 Z" /></clipPath><clipPath
       id="clipPath866"
       clipPathUnits="userSpaceOnUse"><path
         id="path868"
         d="M 0,0 H 1711.61 V 637.276 H 0 Z" /></clipPath><clipPath
       id="clipPath876"
       clipPathUnits="userSpaceOnUse"><path
         id="path878"
         d="M 6.827,6.827 H 1704.78 V 630.449 H 6.827 Z" /></clipPath><clipPath
       id="clipPath888"
       clipPathUnits="userSpaceOnUse"><path
         id="path890"
         d="M 0,0 H 1711.61 V 637.276 H 0 Z" /></clipPath><clipPath
       id="clipPath900"
       clipPathUnits="userSpaceOnUse"><path
         id="path902"
         d="M 6.827,6.827 H 1704.78 V 630.449 H 6.827 Z" /></clipPath><clipPath
       id="clipPath924"
       clipPathUnits="userSpaceOnUse"><path
         id="path926"
         d="M 0,0 H 1711.61 V 637.276 H 0 Z" /></clipPath><clipPath
       id="clipPath934"
       clipPathUnits="userSpaceOnUse"><path
         id="path936"
         d="M 6.827,6.827 H 1704.78 V 630.449 H 6.827 Z" /></clipPath><clipPath
       id="clipPath954"
       clipPathUnits="userSpaceOnUse"><path
         id="path956"
         d="M 0,0 H 1711.61 V 637.276 H 0 Z" /></clipPath><clipPath
       id="clipPath966"
       clipPathUnits="userSpaceOnUse"><path
         id="path968"
         d="M 6.827,6.827 H 1704.78 V 630.449 H 6.827 Z" /></clipPath><clipPath
       id="clipPath992"
       clipPathUnits="userSpaceOnUse"><path
         id="path994"
         d="M 0,0 H 1711.61 V 637.276 H 0 Z" /></clipPath><clipPath
       id="clipPath1004"
       clipPathUnits="userSpaceOnUse"><path
         id="path1006"
         d="M 6.827,6.827 H 1704.78 V 630.449 H 6.827 Z" /></clipPath><clipPath
       id="clipPath1020"
       clipPathUnits="userSpaceOnUse"><path
         id="path1022"
         d="M 0,0 H 1711.61 V 637.276 H 0 Z" /></clipPath><clipPath
       id="clipPath1030"
       clipPathUnits="userSpaceOnUse"><path
         id="path1032"
         d="M 6.827,6.827 H 1704.78 V 630.449 H 6.827 Z" /></clipPath><clipPath
       id="clipPath1048"
       clipPathUnits="userSpaceOnUse"><path
         id="path1050"
         d="M 0,0 H 1711.61 V 637.276 H 0 Z" /></clipPath><clipPath
       id="clipPath1060"
       clipPathUnits="userSpaceOnUse"><path
         id="path1062"
         d="M 6.827,6.827 H 1704.78 V 630.449 H 6.827 Z" /></clipPath><clipPath
       id="clipPath1074"
       clipPathUnits="userSpaceOnUse"><path
         id="path1076"
         d="M 0,0 H 1711.61 V 637.276 H 0 Z" /></clipPath><clipPath
       id="clipPath1084"
       clipPathUnits="userSpaceOnUse"><path
         id="path1086"
         d="m 759.425,50.291 h 51.024 v 56.05 h -51.024 z" /></clipPath><clipPath
       id="clipPath951"
       clipPathUnits="userSpaceOnUse"><rect
         transform="scale(1,-1)"
         y="-509.99847"
         x="717.75812"
         height="220.24883"
         width="479.20807"
         id="rect953"
         style="fill:#f1584f;fill-opacity:1;stroke-width:0.80000001" /></clipPath></defs><g
     transform="matrix(1.25,0,0,-1.25,-946.58562,604.90065)"
     id="g10"><g
       clip-path="url(#clipPath951)"
       id="g7243"><g
         id="g7153"><g
           transform="matrix(7.8081362,0,0,7.8081362,-5172.4269,-346.40609)"
           style="fill:#72787a;fill-opacity:1"
           id="g826"><g
             style="fill:#72787a;fill-opacity:1"
             clip-path="url(#clipPath830)"
             id="g828"><path
               id="path834"
               style="fill:#72787a;fill-opacity:1;fill-rule:nonzero;stroke:none"
               d="m 763.8983,73.99631 c 0,-0.127 -0.042,-0.231 -0.123,-0.313 -0.09,-0.093 -0.211,-0.14 -0.362,-0.14 -0.143,0 -0.252,0.036 -0.331,0.107 -0.033,0.031 -0.093,0.12 -0.18,0.27 l -1.387,2.348 v -2.678 h -0.57 v 2.851 c 0,0.325 0.162,0.486 0.486,0.486 0.148,0 0.259,-0.034 0.336,-0.104 0.042,-0.037 0.103,-0.127 0.186,-0.269 l 1.375,-2.345 v 2.688 h 0.57 z" /><path
               id="path836"
               style="fill:#72787a;fill-opacity:1;fill-rule:nonzero;stroke:none"
               d="m 767.3788,76.4411 h -1.529 c -0.25,0 -0.405,-0.052 -0.467,-0.154 -0.036,-0.061 -0.054,-0.202 -0.054,-0.422 0,-0.116 0.047,-0.206 0.141,-0.27 0.078,-0.051 0.205,-0.077 0.38,-0.077 h 0.632 c 0.271,0 0.486,-0.06 0.648,-0.179 0.161,-0.12 0.242,-0.289 0.242,-0.507 v -0.526 c 0,-0.228 -0.082,-0.404 -0.248,-0.527 -0.166,-0.121 -0.393,-0.182 -0.68,-0.182 h -1.706 v 0.485 h 1.529 c 0.254,0 0.411,0.056 0.474,0.167 0.027,0.058 0.041,0.208 0.041,0.45 0,0.227 -0.165,0.339 -0.497,0.339 h -0.632 c -0.262,0 -0.477,0.056 -0.645,0.167 -0.184,0.122 -0.276,0.289 -0.276,0.5 v 0.519 c 0,0.234 0.1,0.419 0.3,0.557 0.139,0.097 0.342,0.146 0.608,0.146 h 1.739 z" /></g></g><g
           transform="matrix(7.8081362,0,0,7.8081362,-5172.4269,-346.40609)"
           style="fill:#72787a;fill-opacity:1"
           id="g838"><g
             style="fill:#72787a;fill-opacity:1"
             clip-path="url(#clipPath842)"
             id="g840"><path
               id="path846"
               style="fill:#72787a;fill-opacity:1;fill-rule:nonzero;stroke:none"
               d="m 770.7001,76.4514 h -1.018 v -2.855 h -0.598 v 2.855 h -1.012 v 0.486 h 2.628 z" /><path
               id="path848"
               style="fill:#72787a;fill-opacity:1;fill-rule:nonzero;stroke:none"
               d="m 771.337,73.597 h 0.596 v 3.341 h -0.596 z" /><path
               id="path850"
               style="fill:#72787a;fill-opacity:1;fill-rule:nonzero;stroke:none"
               d="m 775.1975,76.4514 h -1.019 v -2.855 h -0.596 v 2.855 h -1.014 v 0.486 h 2.629 z" /></g></g><g
           transform="matrix(7.8081362,0,0,7.8081362,-5172.4269,-346.40609)"
           style="fill:#72787a;fill-opacity:1"
           id="g852"><g
             style="fill:#72787a;fill-opacity:1"
             clip-path="url(#clipPath856)"
             id="g854"><path
               id="path860"
               style="fill:#72787a;fill-opacity:1;fill-rule:nonzero;stroke:none"
               d="m 778.7802,74.4364 c 0,-0.151 -0.014,-0.267 -0.042,-0.347 -0.038,-0.109 -0.111,-0.208 -0.22,-0.296 -0.106,-0.089 -0.221,-0.147 -0.34,-0.173 -0.083,-0.016 -0.217,-0.024 -0.405,-0.024 h -0.933 c -0.179,0 -0.312,0.011 -0.398,0.031 -0.128,0.026 -0.243,0.082 -0.344,0.166 -0.115,0.095 -0.191,0.194 -0.229,0.296 -0.024,0.072 -0.036,0.186 -0.036,0.347 v 2.491 h 0.597 v -2.402 c 0,-0.173 0.041,-0.289 0.123,-0.35 0.082,-0.062 0.231,-0.093 0.446,-0.093 h 0.615 c 0.212,0 0.36,0.03 0.444,0.089 0.083,0.058 0.126,0.172 0.126,0.342 v 2.414 h 0.596 z" /></g></g><g
           transform="matrix(7.8081362,0,0,7.8081362,-5172.4269,-346.40609)"
           style="fill:#72787a;fill-opacity:1"
           id="g862"><g
             style="fill:#72787a;fill-opacity:1"
             clip-path="url(#clipPath866)"
             id="g864"><path
               id="path870"
               style="fill:#72787a;fill-opacity:1;fill-rule:nonzero;stroke:none"
               d="m 782.0477,76.4514 h -1.019 v -2.855 h -0.597 v 2.855 h -1.013 v 0.486 h 2.629 z" /></g></g><g
           transform="matrix(7.8081362,0,0,7.8081362,-5172.4269,-346.40609)"
           style="fill:#72787a;fill-opacity:1"
           id="g872"><g
             style="fill:#72787a;fill-opacity:1"
             clip-path="url(#clipPath876)"
             id="g874"><path
               id="path880"
               style="fill:#72787a;fill-opacity:1;fill-rule:nonzero;stroke:none"
               d="m 787.1094,73.99631 c 0,-0.127 -0.041,-0.231 -0.123,-0.313 -0.09,-0.093 -0.211,-0.14 -0.362,-0.14 -0.143,0 -0.252,0.036 -0.33,0.107 -0.035,0.031 -0.095,0.12 -0.18,0.27 l -1.388,2.348 v -2.678 h -0.57 v 2.851 c 0,0.325 0.162,0.486 0.486,0.486 0.148,0 0.26,-0.034 0.336,-0.104 0.042,-0.037 0.104,-0.127 0.186,-0.269 l 1.375,-2.345 v 2.688 h 0.57 z" /><path
               id="path882"
               style="fill:#72787a;fill-opacity:1;fill-rule:nonzero;stroke:none"
               d="m 791.3096,73.59669 h -0.639 l -0.357,0.817 h -1.618 l -0.356,-0.817 h -0.639 l 1.33,3.027 c 0.09,0.2 0.249,0.301 0.474,0.301 0.227,0 0.384,-0.101 0.474,-0.301 z m -1.184,1.273 -0.651,1.481 -0.59,-1.481 z" /></g></g><g
           transform="matrix(7.8081362,0,0,7.8081362,-5172.4269,-346.40609)"
           style="fill:#72787a;fill-opacity:1"
           id="g884"><g
             style="fill:#72787a;fill-opacity:1"
             clip-path="url(#clipPath888)"
             id="g886"><path
               id="path892"
               style="fill:#72787a;fill-opacity:1;fill-rule:nonzero;stroke:none"
               d="m 793.9332,76.4514 h -1.02 v -2.855 h -0.596 v 2.855 h -1.013 v 0.486 h 2.629 z" /><path
               id="path894"
               style="fill:#72787a;fill-opacity:1;fill-rule:nonzero;stroke:none"
               d="m 794.569,73.597 h 0.596 v 3.341 h -0.596 z" /></g></g><g
           transform="matrix(7.8081362,0,0,7.8081362,-5172.4269,-346.40609)"
           style="fill:#72787a;fill-opacity:1"
           id="g896"><g
             style="fill:#72787a;fill-opacity:1"
             clip-path="url(#clipPath900)"
             id="g898"><path
               id="path904"
               style="fill:#72787a;fill-opacity:1;fill-rule:nonzero;stroke:none"
               d="m 798.9608,74.35249 c 0,-0.503 -0.327,-0.756 -0.981,-0.756 h -0.901 c -0.316,0 -0.552,0.056 -0.708,0.167 -0.188,0.133 -0.282,0.327 -0.282,0.582 v 1.819 c 0,0.254 0.096,0.449 0.288,0.589 0.151,0.116 0.386,0.174 0.702,0.174 h 0.908 c 0.649,0 0.974,-0.254 0.974,-0.763 z m -0.587,0.12 v 1.552 c 0,0.156 -0.042,0.264 -0.124,0.325 -0.082,0.061 -0.217,0.092 -0.404,0.092 h -0.627 c -0.192,0 -0.329,-0.031 -0.411,-0.092 -0.081,-0.061 -0.122,-0.169 -0.122,-0.325 v -1.539 c 0,-0.137 0.045,-0.243 0.134,-0.316 0.074,-0.058 0.207,-0.087 0.399,-0.087 h 0.627 c 0.184,0 0.318,0.029 0.402,0.087 0.083,0.058 0.126,0.159 0.126,0.303" /><path
               id="path906"
               style="fill:#72787a;fill-opacity:1;fill-rule:nonzero;stroke:none"
               d="m 802.8456,73.99631 c 0,-0.127 -0.041,-0.231 -0.122,-0.313 -0.091,-0.093 -0.212,-0.14 -0.363,-0.14 -0.142,0 -0.252,0.036 -0.33,0.107 -0.034,0.031 -0.094,0.12 -0.18,0.27 l -1.388,2.348 v -2.678 h -0.569 v 2.851 c 0,0.325 0.161,0.486 0.486,0.486 0.147,0 0.259,-0.034 0.335,-0.104 0.042,-0.037 0.104,-0.127 0.186,-0.269 l 1.375,-2.345 v 2.688 h 0.57 z" /><path
               id="path908"
               style="fill:#72787a;fill-opacity:1;fill-rule:nonzero;stroke:none"
               d="m 807.0458,73.59669 h -0.638 l -0.357,0.817 h -1.619 l -0.357,-0.817 h -0.638 l 1.331,3.027 c 0.09,0.2 0.247,0.301 0.474,0.301 0.225,0 0.383,-0.101 0.474,-0.301 z m -1.184,1.273 -0.65,1.481 -0.591,-1.481 z" /><path
               id="path910"
               style="fill:#72787a;fill-opacity:1;fill-rule:nonzero;stroke:none"
               d="m 810.2987,73.59669 h -1.586 c -0.348,0 -0.614,0.059 -0.801,0.178 -0.184,0.119 -0.278,0.326 -0.278,0.622 v 2.534 h 0.596 v -2.418 c 0,-0.171 0.05,-0.29 0.147,-0.356 0.075,-0.052 0.232,-0.077 0.474,-0.077 h 1.448 z" /><path
               id="path912"
               style="fill:#72787a;fill-opacity:1;fill-rule:nonzero;stroke:none"
               d="m 762.3907,66.5912 c 0,-0.234 -0.078,-0.418 -0.23,-0.556 -0.153,-0.138 -0.371,-0.207 -0.655,-0.207 h -2.08 v 3.334 h 2.068 c 0.598,0 0.897,-0.249 0.897,-0.746 z m -0.588,0.159 v 1.533 c 0,0.266 -0.165,0.399 -0.492,0.399 h -1.289 v -2.371 h 1.289 c 0.327,0 0.492,0.147 0.492,0.439" /><path
               id="path914"
               style="fill:#72787a;fill-opacity:1;fill-rule:nonzero;stroke:none"
               d="m 765.8893,67.2507 h -1.945 v -0.563 c 0,-0.249 0.174,-0.373 0.521,-0.373 h 1.541 v -0.486 h -1.703 c -0.294,0 -0.522,0.056 -0.686,0.169 -0.181,0.127 -0.27,0.306 -0.27,0.536 v 1.876 c 0,0.231 0.08,0.412 0.24,0.545 0.159,0.131 0.38,0.197 0.662,0.197 h 1.757 v -0.486 h -1.547 c -0.344,0 -0.515,-0.122 -0.515,-0.366 v -0.57 h 1.945 z" /><path
               id="path916"
               style="fill:#72787a;fill-opacity:1;fill-rule:nonzero;stroke:none"
               d="m 771.8776,65.8286 h -1.585 c -0.348,0 -0.616,0.059 -0.8,0.178 -0.187,0.118 -0.28,0.325 -0.28,0.621 v 2.535 h 0.597 v -2.418 c 0,-0.171 0.049,-0.29 0.147,-0.356 0.073,-0.052 0.231,-0.077 0.473,-0.077 h 1.448 z" /><path
               id="path918"
               style="fill:#72787a;fill-opacity:1;fill-rule:nonzero;stroke:none"
               d="m 772.4187,69.29179 c 0,-0.071 -0.012,-0.136 -0.037,-0.196 l -0.26,-0.614 h -0.317 l 0.215,0.524 c -0.112,0.129 -0.168,0.232 -0.168,0.309 0,0.097 0.028,0.177 0.085,0.242 0.055,0.066 0.124,0.099 0.205,0.099 0.079,0 0.145,-0.036 0.197,-0.108 0.054,-0.071 0.08,-0.156 0.08,-0.256" /></g></g><g
           transform="matrix(7.8081362,0,0,7.8081362,-5172.4269,-346.40609)"
           style="fill:#72787a;fill-opacity:1"
           id="g920"><g
             style="fill:#72787a;fill-opacity:1"
             clip-path="url(#clipPath924)"
             id="g922"><path
               id="path928"
               style="fill:#72787a;fill-opacity:1;fill-rule:nonzero;stroke:none"
               d="m 773.526,65.829 h 0.597 v 3.341 h -0.597 z" /></g></g><g
           transform="matrix(7.8081362,0,0,7.8081362,-5172.4269,-346.40609)"
           style="fill:#72787a;fill-opacity:1"
           id="g930"><g
             style="fill:#72787a;fill-opacity:1"
             clip-path="url(#clipPath934)"
             id="g932"><path
               id="path938"
               style="fill:#72787a;fill-opacity:1;fill-rule:nonzero;stroke:none"
               d="m 778.0291,66.22791 c 0,-0.127 -0.041,-0.231 -0.123,-0.313 -0.09,-0.093 -0.211,-0.14 -0.363,-0.14 -0.141,0 -0.251,0.036 -0.329,0.107 -0.034,0.031 -0.094,0.12 -0.18,0.27 l -1.388,2.348 v -2.678 h -0.57 v 2.851 c 0,0.325 0.162,0.486 0.486,0.486 0.148,0 0.26,-0.034 0.336,-0.103 0.042,-0.038 0.104,-0.128 0.186,-0.27 l 1.376,-2.345 v 2.688 h 0.569 z" /><path
               id="path940"
               style="fill:#72787a;fill-opacity:1;fill-rule:nonzero;stroke:none"
               d="m 781.6519,67.2475 h -2.069 v -1.419 h -0.596 v 2.648 c 0,0.215 0.092,0.39 0.276,0.523 0.147,0.102 0.366,0.153 0.656,0.153 h 1.733 v -0.486 h -1.571 c -0.332,0 -0.498,-0.115 -0.498,-0.343 v -0.597 h 2.069 z" /><path
               id="path942"
               style="fill:#72787a;fill-opacity:1;fill-rule:nonzero;stroke:none"
               d="m 785.5707,66.5842 c 0,-0.503 -0.327,-0.756 -0.98,-0.756 h -0.903 c -0.315,0 -0.551,0.055 -0.707,0.166 -0.187,0.134 -0.281,0.328 -0.281,0.584 v 1.818 c 0,0.253 0.095,0.449 0.287,0.59 0.152,0.115 0.386,0.173 0.701,0.173 h 0.909 c 0.649,0 0.974,-0.254 0.974,-0.763 z m -0.587,0.12 v 1.552 c 0,0.156 -0.041,0.264 -0.124,0.325 -0.081,0.061 -0.217,0.092 -0.404,0.092 h -0.627 c -0.192,0 -0.328,-0.031 -0.41,-0.092 -0.082,-0.061 -0.123,-0.169 -0.123,-0.325 v -1.538 c 0,-0.138 0.045,-0.244 0.135,-0.317 0.074,-0.058 0.206,-0.087 0.398,-0.087 h 0.627 c 0.183,0 0.318,0.029 0.402,0.087 0.084,0.058 0.126,0.159 0.126,0.303" /><path
               id="path944"
               style="fill:#72787a;fill-opacity:1;fill-rule:nonzero;stroke:none"
               d="m 789.4563,65.8286 h -0.743 l -1.46,1.279 c -0.051,0.041 -0.075,0.112 -0.075,0.21 0,0.186 0.123,0.279 0.369,0.279 l 0.872,0.007 c 0.29,0 0.434,0.111 0.434,0.333 v 0.383 c 0,0.233 -0.163,0.35 -0.491,0.35 h -1.232 v -2.841 h -0.596 v 3.327 h 2.002 c 0.609,0 0.914,-0.236 0.914,-0.709 v -0.576 c 0,-0.207 -0.079,-0.374 -0.237,-0.5 -0.157,-0.127 -0.365,-0.19 -0.623,-0.19 h -0.686 z" /><path
               id="path946"
               style="fill:#72787a;fill-opacity:1;fill-rule:nonzero;stroke:none"
               d="m 794.4274,65.8116 h -0.57 v 2.621 l -1.052,-2.334 c -0.101,-0.229 -0.244,-0.344 -0.428,-0.344 -0.11,0 -0.2,0.034 -0.27,0.1 -0.042,0.045 -0.087,0.119 -0.134,0.223 l -1.077,2.355 v -2.621 h -0.569 v 2.901 c 0,0.126 0.045,0.232 0.135,0.314 0.09,0.084 0.214,0.126 0.375,0.126 0.241,0 0.407,-0.104 0.496,-0.31 l 1.038,-2.361 1.055,2.364 c 0.094,0.209 0.257,0.313 0.492,0.313 0.163,0 0.289,-0.042 0.377,-0.128 0.088,-0.086 0.132,-0.195 0.132,-0.328 z" /><path
               id="path948"
               style="fill:#72787a;fill-opacity:1;fill-rule:nonzero;stroke:none"
               d="m 798.6584,65.8289 h -0.639 l -0.356,0.815 h -1.619 l -0.356,-0.815 h -0.639 l 1.331,3.027 c 0.089,0.2 0.248,0.3 0.473,0.3 0.226,0 0.384,-0.1 0.474,-0.3 z m -1.184,1.272 -0.651,1.482 -0.59,-1.482 z" /></g></g><g
           transform="matrix(7.8081362,0,0,7.8081362,-5172.4269,-346.40609)"
           style="fill:#72787a;fill-opacity:1"
           id="g950"><g
             style="fill:#72787a;fill-opacity:1"
             clip-path="url(#clipPath954)"
             id="g952"><path
               id="path958"
               style="fill:#72787a;fill-opacity:1;fill-rule:nonzero;stroke:none"
               d="m 801.3121,68.683 h -1.019 v -2.854 h -0.597 v 2.854 h -1.012 v 0.486 h 2.628 z" /><path
               id="path960"
               style="fill:#72787a;fill-opacity:1;fill-rule:nonzero;stroke:none"
               d="m 801.979,65.829 h 0.596 v 3.341 h -0.596 z" /></g></g><g
           transform="matrix(7.8081362,0,0,7.8081362,-5172.4269,-346.40609)"
           style="fill:#72787a;fill-opacity:1"
           id="g962"><g
             style="fill:#72787a;fill-opacity:1"
             clip-path="url(#clipPath966)"
             id="g964"><path
               id="path970"
               style="fill:#72787a;fill-opacity:1;fill-rule:nonzero;stroke:none"
               d="m 806.4016,66.5842 c 0,-0.503 -0.327,-0.756 -0.981,-0.756 h -0.901 c -0.316,0 -0.552,0.055 -0.708,0.166 -0.188,0.134 -0.282,0.328 -0.282,0.584 v 1.818 c 0,0.253 0.096,0.449 0.288,0.59 0.152,0.115 0.386,0.173 0.702,0.173 h 0.908 c 0.649,0 0.974,-0.254 0.974,-0.763 z m -0.587,0.12 v 1.552 c 0,0.156 -0.042,0.264 -0.123,0.325 -0.082,0.061 -0.217,0.092 -0.405,0.092 h -0.626 c -0.193,0 -0.33,-0.031 -0.412,-0.092 -0.081,-0.061 -0.122,-0.169 -0.122,-0.325 v -1.538 c 0,-0.138 0.045,-0.244 0.135,-0.317 0.073,-0.058 0.206,-0.087 0.399,-0.087 h 0.626 c 0.184,0 0.318,0.029 0.401,0.087 0.084,0.058 0.127,0.159 0.127,0.303" /><path
               id="path972"
               style="fill:#72787a;fill-opacity:1;fill-rule:nonzero;stroke:none"
               d="m 810.3177,66.22791 c 0,-0.127 -0.041,-0.231 -0.123,-0.313 -0.091,-0.093 -0.211,-0.14 -0.362,-0.14 -0.143,0 -0.252,0.036 -0.33,0.107 -0.034,0.031 -0.094,0.12 -0.18,0.27 l -1.388,2.348 v -2.678 h -0.569 v 2.851 c 0,0.325 0.161,0.486 0.485,0.486 0.147,0 0.259,-0.034 0.336,-0.103 0.042,-0.038 0.103,-0.128 0.185,-0.27 l 1.376,-2.345 v 2.688 h 0.57 z" /><path
               id="path974"
               style="fill:#72787a;fill-opacity:1;fill-rule:nonzero;stroke:none"
               d="m 762.3482,58.86591 c 0,-0.258 -0.076,-0.452 -0.228,-0.583 -0.164,-0.149 -0.385,-0.223 -0.662,-0.223 h -1.038 c -0.323,0 -0.57,0.063 -0.737,0.19 -0.114,0.084 -0.19,0.186 -0.228,0.306 -0.02,0.069 -0.03,0.189 -0.03,0.359 v 1.69 c 0,0.155 0.016,0.274 0.048,0.356 0.046,0.104 0.132,0.196 0.258,0.276 0.16,0.103 0.389,0.153 0.689,0.153 h 1.712 v -0.479 h -1.589 c -0.188,0 -0.318,-0.025 -0.393,-0.077 -0.086,-0.058 -0.129,-0.159 -0.129,-0.306 v -1.592 c 0,-0.149 0.048,-0.255 0.142,-0.32 0.073,-0.049 0.197,-0.073 0.368,-0.073 h 0.774 c 0.301,0 0.452,0.124 0.452,0.372 v 0.987 h 0.591 z" /><path
               id="path976"
               style="fill:#72787a;fill-opacity:1;fill-rule:nonzero;stroke:none"
               d="m 766.7161,58.06 h -1.702 c -0.294,0 -0.523,0.058 -0.687,0.173 -0.18,0.125 -0.269,0.304 -0.269,0.54 v 1.882 c 0,0.232 0.079,0.415 0.24,0.546 0.159,0.13 0.38,0.196 0.661,0.196 h 1.757 v -0.483 h -1.547 c -0.344,0 -0.515,-0.126 -0.515,-0.38 v -0.566 h 2.062 v -0.479 h -2.062 v -0.564 c 0,-0.25 0.174,-0.375 0.521,-0.375 h 1.541 z m -0.674,4.203 -0.456,-0.596 h -0.444 l 0.402,0.596 z" /><path
               id="path978"
               style="fill:#72787a;fill-opacity:1;fill-rule:nonzero;stroke:none"
               d="m 771.243,58.8161 c 0,-0.504 -0.327,-0.756 -0.98,-0.756 h -0.902 c -0.316,0 -0.552,0.055 -0.708,0.166 -0.187,0.133 -0.282,0.328 -0.282,0.583 v 1.818 c 0,0.254 0.096,0.45 0.288,0.59 0.152,0.115 0.386,0.173 0.702,0.173 h 0.908 c 0.65,0 0.974,-0.254 0.974,-0.763 z m -0.587,0.12 v 1.552 c 0,0.155 -0.042,0.264 -0.124,0.324 -0.081,0.062 -0.216,0.092 -0.404,0.092 h -0.626 c -0.192,0 -0.33,-0.03 -0.411,-0.092 -0.082,-0.06 -0.123,-0.169 -0.123,-0.324 v -1.539 c 0,-0.138 0.045,-0.243 0.135,-0.317 0.074,-0.057 0.207,-0.086 0.399,-0.086 h 0.626 c 0.184,0 0.318,0.029 0.402,0.086 0.084,0.058 0.126,0.159 0.126,0.304" /><path
               id="path980"
               style="fill:#72787a;fill-opacity:1;fill-rule:nonzero;stroke:none"
               d="m 775.8781,58.86591 c 0,-0.258 -0.076,-0.452 -0.228,-0.583 -0.164,-0.149 -0.385,-0.223 -0.663,-0.223 h -1.036 c -0.324,0 -0.57,0.063 -0.738,0.19 -0.114,0.084 -0.19,0.186 -0.227,0.306 -0.021,0.069 -0.031,0.189 -0.031,0.359 v 1.69 c 0,0.155 0.016,0.274 0.048,0.356 0.046,0.104 0.132,0.196 0.258,0.276 0.159,0.103 0.39,0.153 0.69,0.153 h 1.711 v -0.479 h -1.588 c -0.189,0 -0.319,-0.025 -0.394,-0.077 -0.085,-0.058 -0.128,-0.159 -0.128,-0.306 v -1.592 c 0,-0.149 0.046,-0.255 0.141,-0.32 0.074,-0.049 0.196,-0.073 0.369,-0.073 h 0.773 c 0.302,0 0.452,0.124 0.452,0.372 v 0.987 h 0.591 z" /><path
               id="path982"
               style="fill:#72787a;fill-opacity:1;fill-rule:nonzero;stroke:none"
               d="m 780.5096,58.0602 h -0.743 l -1.46,1.279 c -0.05,0.041 -0.075,0.112 -0.075,0.21 0,0.186 0.123,0.279 0.369,0.279 l 0.872,0.007 c 0.29,0 0.435,0.111 0.435,0.333 v 0.383 c 0,0.233 -0.163,0.349 -0.492,0.349 h -1.232 v -2.84 h -0.597 v 3.327 h 2.003 c 0.61,0 0.914,-0.237 0.914,-0.709 v -0.576 c 0,-0.207 -0.078,-0.374 -0.236,-0.5 -0.159,-0.127 -0.366,-0.19 -0.624,-0.19 h -0.686 z" /><path
               id="path984"
               style="fill:#72787a;fill-opacity:1;fill-rule:nonzero;stroke:none"
               d="m 785.4031,58.0605 h -0.638 l -0.358,0.815 h -1.618 l -0.357,-0.815 h -0.638 l 1.33,3.028 c 0.091,0.199 0.248,0.298 0.474,0.298 0.226,0 0.384,-0.099 0.473,-0.298 z m -1.184,1.272 -0.651,1.482 -0.59,-1.482 z" /><path
               id="path986"
               style="fill:#72787a;fill-opacity:1;fill-rule:nonzero;stroke:none"
               d="m 789.7106,60.0287 c 0,-0.223 -0.078,-0.397 -0.236,-0.525 -0.158,-0.128 -0.374,-0.192 -0.648,-0.192 h -1.46 v -1.252 h -0.597 v 3.34 h 2.027 c 0.262,0 0.475,-0.054 0.639,-0.163 0.175,-0.119 0.265,-0.283 0.269,-0.492 0.004,-0.224 0.006,-0.463 0.006,-0.716 m -0.596,0.156 v 0.397 c 0,0.223 -0.159,0.336 -0.477,0.336 h -1.271 v -1.109 h 1.256 c 0.328,0 0.492,0.125 0.492,0.376" /></g></g><g
           transform="matrix(7.8081362,0,0,7.8081362,-5172.4269,-346.40609)"
           style="fill:#72787a;fill-opacity:1"
           id="g988"><g
             style="fill:#72787a;fill-opacity:1"
             clip-path="url(#clipPath992)"
             id="g990"><path
               id="path996"
               style="fill:#72787a;fill-opacity:1;fill-rule:nonzero;stroke:none"
               d="m 794.3732,58.0602 h -0.594 v 1.421 h -1.792 v -1.421 h -0.597 v 3.33 h 0.597 v -1.429 h 1.792 v 1.429 h 0.594 z" /><path
               id="path998"
               style="fill:#72787a;fill-opacity:1;fill-rule:nonzero;stroke:none"
               d="m 796.079,58.06 h 0.597 v 3.341 h -0.597 z" /></g></g><g
           transform="matrix(7.8081362,0,0,7.8081362,-5172.4269,-346.40609)"
           style="fill:#72787a;fill-opacity:1"
           id="g1000"><g
             style="fill:#72787a;fill-opacity:1"
             clip-path="url(#clipPath1004)"
             id="g1002"><path
               id="path1008"
               style="fill:#72787a;fill-opacity:1;fill-rule:nonzero;stroke:none"
               d="m 801.2834,58.79269 c 0,-0.393 -0.203,-0.632 -0.609,-0.716 l 0.591,-0.509 h -0.813 l -0.581,0.486 h -0.503 c -0.312,0 -0.546,0.048 -0.702,0.143 -0.191,0.133 -0.288,0.332 -0.288,0.596 v 1.845 c 0,0.275 0.097,0.477 0.288,0.602 0.16,0.103 0.394,0.154 0.702,0.154 h 0.926 c 0.307,0 0.541,-0.051 0.698,-0.154 0.194,-0.125 0.291,-0.327 0.291,-0.602 z m -0.596,0.11 v 1.605 c 0,0.153 -0.043,0.257 -0.129,0.313 -0.086,0.056 -0.225,0.083 -0.416,0.083 h -0.628 c -0.188,0 -0.324,-0.027 -0.41,-0.083 -0.086,-0.056 -0.129,-0.16 -0.129,-0.313 v -1.586 c 0,-0.152 0.045,-0.256 0.135,-0.309 0.078,-0.053 0.213,-0.08 0.404,-0.08 h 0.628 c 0.187,0 0.325,0.025 0.412,0.077 0.088,0.051 0.133,0.148 0.133,0.293" /><path
               id="path1010"
               style="fill:#72787a;fill-opacity:1;fill-rule:nonzero;stroke:none"
               d="m 805.9457,58.8994 c 0,-0.151 -0.014,-0.266 -0.043,-0.346 -0.037,-0.11 -0.111,-0.208 -0.218,-0.297 -0.108,-0.089 -0.221,-0.147 -0.342,-0.173 -0.082,-0.016 -0.216,-0.023 -0.405,-0.023 h -0.932 c -0.179,0 -0.313,0.01 -0.398,0.029 -0.128,0.027 -0.243,0.083 -0.345,0.167 -0.114,0.096 -0.19,0.194 -0.228,0.297 -0.024,0.071 -0.036,0.186 -0.036,0.346 v 2.49 h 0.597 v -2.401 c 0,-0.172 0.041,-0.289 0.123,-0.351 0.082,-0.061 0.231,-0.091 0.446,-0.091 h 0.615 c 0.211,0 0.359,0.03 0.444,0.088 0.083,0.058 0.126,0.172 0.126,0.341 v 2.414 h 0.596 z" /><path
               id="path1012"
               style="fill:#72787a;fill-opacity:1;fill-rule:nonzero;stroke:none"
               d="m 810.1938,59.4818 h -1.946 v -0.563 c 0,-0.248 0.174,-0.372 0.522,-0.372 h 1.541 v -0.486 h -1.703 c -0.294,0 -0.522,0.056 -0.686,0.169 -0.18,0.126 -0.27,0.305 -0.27,0.536 v 1.875 c 0,0.231 0.08,0.412 0.24,0.545 0.16,0.132 0.38,0.197 0.662,0.197 h 1.757 v -0.486 h -1.547 c -0.344,0 -0.516,-0.121 -0.516,-0.366 v -0.569 h 1.946 z" /><path
               id="path1014"
               style="fill:#72787a;fill-opacity:1;fill-rule:nonzero;stroke:none"
               d="m 761.9673,51.71339 h -1.946 v -0.563 c 0,-0.248 0.174,-0.372 0.522,-0.372 h 1.541 v -0.486 h -1.702 c -0.295,0 -0.523,0.056 -0.687,0.169 -0.18,0.126 -0.27,0.305 -0.27,0.536 v 1.875 c 0,0.232 0.08,0.413 0.24,0.545 0.16,0.132 0.381,0.198 0.662,0.198 h 1.757 v -0.487 h -1.547 c -0.344,0 -0.516,-0.121 -0.516,-0.366 v -0.57 h 1.946 z" /></g></g><g
           transform="matrix(7.8081362,0,0,7.8081362,-5172.4269,-346.40609)"
           style="fill:#72787a;fill-opacity:1"
           id="g1016"><g
             style="fill:#72787a;fill-opacity:1"
             clip-path="url(#clipPath1020)"
             id="g1018"><path
               id="path1024"
               style="fill:#72787a;fill-opacity:1;fill-rule:nonzero;stroke:none"
               d="m 766.2449,53.14571 h -1.018 v -2.854 h -0.598 v 2.854 h -1.013 v 0.486 h 2.629 z" /></g></g><g
           transform="matrix(7.8081362,0,0,7.8081362,-5172.4269,-346.40609)"
           style="fill:#72787a;fill-opacity:1"
           id="g1026"><g
             style="fill:#72787a;fill-opacity:1"
             clip-path="url(#clipPath1030)"
             id="g1028"><path
               id="path1034"
               style="fill:#72787a;fill-opacity:1;fill-rule:nonzero;stroke:none"
               d="m 773.1549,51.7101 h -2.069 v -1.418 h -0.596 v 2.647 c 0,0.216 0.092,0.39 0.276,0.523 0.148,0.102 0.366,0.153 0.656,0.153 h 1.733 v -0.486 h -1.57 c -0.332,0 -0.499,-0.115 -0.499,-0.343 v -0.597 h 2.069 z" /><path
               id="path1036"
               style="fill:#72787a;fill-opacity:1;fill-rule:nonzero;stroke:none"
               d="m 777.8044,51.0481 c 0,-0.505 -0.326,-0.757 -0.98,-0.757 h -0.903 c -0.315,0 -0.551,0.056 -0.707,0.167 -0.187,0.133 -0.282,0.328 -0.282,0.583 v 1.818 c 0,0.254 0.096,0.45 0.288,0.59 0.152,0.115 0.386,0.173 0.701,0.173 h 0.909 c 0.649,0 0.974,-0.255 0.974,-0.763 z m -0.587,0.119 v 1.552 c 0,0.155 -0.041,0.264 -0.124,0.325 -0.081,0.061 -0.216,0.092 -0.404,0.092 h -0.626 c -0.192,0 -0.329,-0.031 -0.411,-0.092 -0.083,-0.061 -0.123,-0.17 -0.123,-0.325 v -1.539 c 0,-0.137 0.045,-0.242 0.135,-0.316 0.074,-0.057 0.207,-0.086 0.399,-0.086 h 0.626 c 0.184,0 0.318,0.029 0.402,0.086 0.084,0.059 0.126,0.159 0.126,0.303" /><path
               id="path1038"
               style="fill:#72787a;fill-opacity:1;fill-rule:nonzero;stroke:none"
               d="m 782.421,50.2916 h -0.743 l -1.46,1.278 c -0.05,0.043 -0.075,0.113 -0.075,0.211 0,0.186 0.123,0.28 0.368,0.28 l 0.873,0.006 c 0.29,0 0.435,0.111 0.435,0.333 v 0.383 c 0,0.233 -0.164,0.349 -0.492,0.349 h -1.232 v -2.84 h -0.596 v 3.327 h 2.002 c 0.61,0 0.914,-0.237 0.914,-0.709 v -0.576 c 0,-0.207 -0.079,-0.374 -0.237,-0.5 -0.158,-0.127 -0.365,-0.19 -0.623,-0.19 h -0.687 z" /><path
               id="path1040"
               style="fill:#72787a;fill-opacity:1;fill-rule:nonzero;stroke:none"
               d="m 786.5641,51.71339 h -1.945 v -0.563 c 0,-0.248 0.174,-0.372 0.521,-0.372 h 1.541 v -0.486 h -1.703 c -0.293,0 -0.523,0.056 -0.686,0.169 -0.18,0.126 -0.27,0.305 -0.27,0.536 v 1.875 c 0,0.232 0.08,0.413 0.24,0.545 0.16,0.132 0.38,0.198 0.663,0.198 h 1.756 v -0.487 h -1.547 c -0.344,0 -0.515,-0.121 -0.515,-0.366 v -0.57 h 1.945 z" /><path
               id="path1042"
               style="fill:#72787a;fill-opacity:1;fill-rule:nonzero;stroke:none"
               d="m 791.0553,53.1357 h -1.529 c -0.25,0 -0.406,-0.052 -0.468,-0.154 -0.036,-0.061 -0.055,-0.202 -0.055,-0.422 0,-0.116 0.048,-0.205 0.142,-0.27 0.077,-0.05 0.205,-0.077 0.381,-0.077 h 0.633 c 0.269,0 0.485,-0.059 0.647,-0.179 0.161,-0.12 0.243,-0.289 0.243,-0.506 v -0.527 c 0,-0.229 -0.084,-0.404 -0.249,-0.526 -0.166,-0.122 -0.393,-0.183 -0.68,-0.183 h -1.706 v 0.486 h 1.528 c 0.254,0 0.412,0.055 0.473,0.166 0.029,0.058 0.043,0.209 0.043,0.45 0,0.227 -0.166,0.34 -0.498,0.34 h -0.632 c -0.262,0 -0.477,0.056 -0.644,0.167 -0.185,0.121 -0.277,0.288 -0.277,0.499 v 0.52 c 0,0.233 0.101,0.418 0.301,0.556 0.139,0.097 0.342,0.146 0.608,0.146 h 1.739 z" /></g></g><g
           transform="matrix(7.8081362,0,0,7.8081362,-5172.4269,-346.40609)"
           style="fill:#72787a;fill-opacity:1"
           id="g1044"><g
             style="fill:#72787a;fill-opacity:1"
             clip-path="url(#clipPath1048)"
             id="g1046"><path
               id="path1052"
               style="fill:#72787a;fill-opacity:1;fill-rule:nonzero;stroke:none"
               d="m 795.1375,53.14571 h -1.019 v -2.854 h -0.596 v 2.854 h -1.013 v 0.486 h 2.628 z" /><path
               id="path1054"
               style="fill:#72787a;fill-opacity:1;fill-rule:nonzero;stroke:none"
               d="m 796.534,50.292 h 0.597 v 3.341 h -0.597 z" /></g></g><g
           transform="matrix(7.8081362,0,0,7.8081362,-5172.4269,-346.40609)"
           style="fill:#72787a;fill-opacity:1"
           id="g1056"><g
             style="fill:#72787a;fill-opacity:1"
             clip-path="url(#clipPath1060)"
             id="g1058"><path
               id="path1064"
               style="fill:#72787a;fill-opacity:1;fill-rule:nonzero;stroke:none"
               d="m 801.475,50.2914 h -1.703 c -0.294,0 -0.522,0.058 -0.686,0.173 -0.18,0.125 -0.27,0.302 -0.27,0.533 v 1.886 c 0,0.228 0.08,0.409 0.24,0.542 0.16,0.134 0.381,0.2 0.662,0.2 h 1.757 v -0.493 h -1.547 c -0.343,0 -0.516,-0.124 -0.516,-0.372 v -0.564 h 2.063 v -0.483 h -2.063 v -0.563 c 0,-0.251 0.175,-0.376 0.522,-0.376 h 1.541 z m -0.674,3.597 h -0.444 l -0.456,0.597 h 0.498 z" /><path
               id="path1066"
               style="fill:#72787a;fill-opacity:1;fill-rule:nonzero;stroke:none"
               d="m 806.0348,50.2916 h -0.744 l -1.459,1.278 c -0.051,0.043 -0.075,0.113 -0.075,0.211 0,0.186 0.122,0.28 0.368,0.28 l 0.873,0.006 c 0.289,0 0.434,0.111 0.434,0.333 v 0.383 c 0,0.233 -0.163,0.349 -0.492,0.349 h -1.231 v -2.84 h -0.597 v 3.327 h 2.003 c 0.609,0 0.914,-0.237 0.914,-0.709 v -0.576 c 0,-0.207 -0.079,-0.374 -0.237,-0.5 -0.158,-0.127 -0.365,-0.19 -0.624,-0.19 h -0.686 z" /><path
               id="path1068"
               style="fill:#72787a;fill-opacity:1;fill-rule:nonzero;stroke:none"
               d="m 810.1774,51.71339 h -1.946 v -0.563 c 0,-0.248 0.175,-0.372 0.523,-0.372 h 1.54 v -0.486 h -1.703 c -0.293,0 -0.522,0.056 -0.686,0.169 -0.18,0.126 -0.27,0.305 -0.27,0.536 v 1.875 c 0,0.232 0.08,0.413 0.24,0.545 0.159,0.132 0.38,0.198 0.663,0.198 h 1.756 v -0.487 h -1.547 c -0.344,0 -0.516,-0.121 -0.516,-0.366 v -0.57 h 1.946 z" /></g></g></g><g
         id="g7143"><g
           transform="matrix(7.8081362,0,0,7.8081362,-5172.4269,-346.40609)"
           style="fill:#72787a;fill-opacity:1"
           id="g1070"><g
             style="fill:#72787a;fill-opacity:1"
             clip-path="url(#clipPath1074)"
             id="g1072"><path
               id="path1078"
               style="fill:#72787a;fill-opacity:1;fill-rule:nonzero;stroke:none"
               d="m 759.461,83.192 h 4.379 v 22.402 h -4.379 z" /></g></g><g
           transform="matrix(7.8081362,0,0,7.8081362,-5172.4269,-346.40609)"
           style="fill:#72787a;fill-opacity:1"
           id="g1080"><g
             style="fill:#72787a;fill-opacity:1"
             clip-path="url(#clipPath1084)"
             id="g1082"><path
               id="path1088"
               style="fill:#72787a;fill-opacity:1;fill-rule:nonzero;stroke:none"
               d="M 806.3799,105.5942 V 92.17419 c -0.739,0.82 -12.769,14.16801 -12.769,14.16801 h -0.669 V 83.19219 h 4.068 v 13.238 c 0.74,-0.812 12.74,-13.985 12.74,-13.985 h 0.699 v 23.14901 z" /></g></g><path
           id="path1098"
           style="fill:#72787a;fill-opacity:1;fill-rule:nonzero;stroke:none"
           d="m 946.70013,353.7277 -1.81929,0.0703 v -18.18515 c -11.39988,-4.31789 -20.10596,-6.03568 -30.62351,-6.03568 -37.38536,0 -61.54373,25.01726 -61.54373,63.73781 0,36.74509 22.7529,59.59162 59.35745,59.59162 20.70717,0 37.78357,-7.65978 50.76069,-22.76064 l 2.83435,-3.27942 2.50642,39.83704 -0.77301,0.5778 c -5.51254,4.01338 -8.09704,5.29391 -14.6871,8.22977 -13.7189,5.97323 -25.36864,8.40937 -40.15725,8.40937 -26.60232,0 -50.62015,-9.23703 -67.62627,-26.03233 -17.02954,-16.7953 -26.3993,-40.50853 -26.3993,-66.76729 0,-54.35244 38.72054,-93.78353 92.08135,-93.78353 13.37533,0 28.47627,2.32683 41.42216,6.39486 9.05744,2.77189 14.13272,4.85667 25.8137,10.58003 l 0.98382,0.4763 v 44.2409 l -2.35025,-0.84328 c -9.3151,-3.29504 -19.32513,-4.80201 -29.78023,-4.45845" /><path
           id="path1100"
           style="fill:#8cbd3a;fill-opacity:1;fill-rule:nonzero;stroke:none"
           d="m 939.99528,409.88452 c -0.0781,0.0234 -0.17177,0.0469 -0.24205,0.0781 -21.77689,5.65309 -43.92076,2.44395 -60.27881,-8.37032 9.06525,-17.31064 26.80533,-30.77967 48.53538,-36.41715 0.0625,-0.0234 0.17177,-0.0469 0.17177,-0.0469 21.79251,-5.65309 43.89735,-2.44394 60.24758,8.3469 -9.0262,17.31064 -26.72725,30.77967 -48.43387,36.40934" /></g></g></g></svg>